<?xml version="1.0" encoding="utf-8"?>
<!-- Generator: Adobe Illustrator 26.3.1, SVG Export Plug-In . SVG Version: 6.00 Build 0)  -->
<svg version="1.1" id="图层_1" xmlns="http://www.w3.org/2000/svg" xmlns:xlink="http://www.w3.org/1999/xlink" x="0px" y="0px"
	 viewBox="0 0 200 200" style="enable-background:new 0 0 200 200;" xml:space="preserve">
<style type="text/css">
	.st0{fill:url(#SVGID_1_);}
	.st1{fill:#FFFFFF;}
</style>
<g>
	<g>
		<g>
			
				<linearGradient id="SVGID_1_" gradientUnits="userSpaceOnUse" x1="32.3838" y1="166.1048" x2="164.3771" y2="36.8471" gradientTransform="matrix(1 0 0 -1 0 199.89)">
				<stop  offset="0" style="stop-color:#EED263"/>
				<stop  offset="0.7584" style="stop-color:#F2AB14"/>
			</linearGradient>
			<path class="st0" d="M199,100c-0.5,33.4-5.6,60.9-22.1,76.9c-16,16.5-43.5,21.6-76.9,22.1c-33.4-0.5-60.9-5.6-76.9-22.1
				C6.6,160.9,1.5,133.4,1,100c0.5-33.4,5.6-60.9,22.1-76.9C39.1,6.6,66.6,1.5,100,1c33.4,0.5,60.9,5.6,76.9,22.1
				C193.4,39.1,198.5,66.6,199,100z"/>
		</g>
	</g>
	<path class="st1" d="M82.3,60.3c1.8,0,3.3,0.6,4.5,1.8c1.3,1.2,1.9,2.7,1.9,4.5v25.5c0,1.8-0.6,3.3-1.9,4.5
		c-1.3,1.3-2.8,1.9-4.5,1.9H56.8c-1.8,0-3.3-0.6-4.5-1.9c-1.2-1.3-1.8-2.8-1.8-4.5V66.6c0-1.8,0.6-3.3,1.8-4.5
		c1.2-1.2,2.7-1.8,4.5-1.8C56.8,60.3,82.3,60.3,82.3,60.3z M82.3,111.2c1.8,0,3.3,0.6,4.5,1.8c1.3,1.2,1.9,2.7,1.9,4.5v25.6
		c0,1.8-0.6,3.3-1.9,4.5s-2.8,1.8-4.5,1.8H56.8c-1.8,0-3.3-0.6-4.5-1.8c-1.2-1.2-1.8-2.7-1.8-4.5v-25.6c0-1.8,0.6-3.3,1.8-4.5
		c1.2-1.2,2.7-1.8,4.5-1.8L82.3,111.2L82.3,111.2z M133.3,111.2c1.8,0,3.3,0.6,4.5,1.8c1.2,1.2,1.8,2.7,1.8,4.5v25.6
		c0,1.8-0.6,3.3-1.8,4.5s-2.7,1.8-4.5,1.8h-25.5c-1.8,0-3.3-0.6-4.5-1.8c-1.3-1.2-1.9-2.7-1.9-4.5v-25.6c0-1.8,0.6-3.3,1.9-4.5
		c1.3-1.2,2.8-1.8,4.5-1.8L133.3,111.2L133.3,111.2z M147.5,71.5c1.4,1.3,2,2.9,2,4.8c0,1.8-0.7,3.4-2,4.7l-19,18.9
		c-1.3,1.3-2.9,2-4.7,2c-1.8,0-3.4-0.7-4.7-2L100.1,81c-1.3-1.3-1.9-2.8-1.9-4.7s0.7-3.4,1.9-4.8l19-19c1.3-1.3,2.9-1.9,4.7-1.9
		c1.8,0,3.4,0.7,4.7,1.9C128.5,52.5,147.5,71.5,147.5,71.5z"/>
</g>
</svg>
