<?xml version="1.0" encoding="utf-8"?>
<!-- Generator: Adobe Illustrator 26.3.1, SVG Export Plug-In . SVG Version: 6.00 Build 0)  -->
<svg version="1.1" id="图层_1" xmlns="http://www.w3.org/2000/svg" xmlns:xlink="http://www.w3.org/1999/xlink" x="0px" y="0px"
	 viewBox="0 0 200 200" style="enable-background:new 0 0 200 200;" xml:space="preserve">
<style type="text/css">
	.st0{fill:url(#SVGID_1_);}
	.st1{fill:#FFFFFF;}
</style>
<g>
	<g>
		
			<linearGradient id="SVGID_1_" gradientUnits="userSpaceOnUse" x1="32.3838" y1="166.1048" x2="164.3771" y2="36.8471" gradientTransform="matrix(1 0 0 -1 0 199.89)">
			<stop  offset="0" style="stop-color:#0EE0C1"/>
			<stop  offset="0.7584" style="stop-color:#0BC0E2"/>
		</linearGradient>
		<path class="st0" d="M199,100c-0.5,33.4-5.6,60.9-22.1,76.9c-16,16.5-43.5,21.6-76.9,22.1c-33.4-0.5-60.9-5.6-76.9-22.1
			C6.6,160.9,1.5,133.4,1,100c0.5-33.4,5.6-60.9,22.1-76.9C39.1,6.6,66.6,1.5,100,1c33.4,0.5,60.9,5.6,76.9,22.1
			C193.4,39.1,198.5,66.6,199,100z"/>
	</g>
	<path class="st1" d="M100,50.6c0,0-42.9,33.9-42.9,57s19.2,41.8,42.9,41.8s42.9-18.7,42.9-41.8S100,50.6,100,50.6z M92.5,130.8
		l4.3-21.3H75.4l27.7-34.1l-4.3,21.3h21.3L92.5,130.8z"/>
</g>
</svg>
