<?xml version="1.0" encoding="utf-8"?>
<!-- Generator: Adobe Illustrator 26.3.1, SVG Export Plug-In . SVG Version: 6.00 Build 0)  -->
<svg version="1.1" id="图层_1" xmlns="http://www.w3.org/2000/svg" xmlns:xlink="http://www.w3.org/1999/xlink" x="0px" y="0px"
	 viewBox="0 0 200 200" style="enable-background:new 0 0 200 200;" xml:space="preserve">
<style type="text/css">
	.st0{fill:url(#SVGID_1_);}
	.st1{fill:#FFFFFF;}
	.st2{opacity:0.6;fill:#FFFFFF;enable-background:new    ;}
</style>
<g>
	<g>
		<g>
			
				<linearGradient id="SVGID_1_" gradientUnits="userSpaceOnUse" x1="36.7611" y1="170.3151" x2="157.0734" y2="36.3309" gradientTransform="matrix(1 0 0 -1 0 199.89)">
				<stop  offset="0" style="stop-color:#3AACFF"/>
				<stop  offset="0.7584" style="stop-color:#2587ED"/>
			</linearGradient>
			<path class="st0" d="M199,100c-0.5,33.4-5.6,60.9-22.1,76.9c-16,16.5-43.5,21.6-76.9,22.1c-33.4-0.5-60.9-5.6-76.9-22.1
				C6.6,160.9,1.5,133.4,1,100c0.5-33.4,5.6-60.9,22.1-76.9C39.1,6.6,66.6,1.5,100,1c33.4,0.5,60.9,5.6,76.9,22.1
				C193.4,39.1,198.5,66.6,199,100z"/>
		</g>
	</g>
	<g>
		<path class="st1" d="M111.2,50.6c8.3,0,15.1,6.8,15.1,15.1l0,0v68.5c0,8.1,6.3,14.8,14.4,15.2l0.8,0H61.7
			c-8.3,0-15.1-6.8-15.1-15.1l0,0V65.7c0-8.3,6.8-15.1,15.1-15.1l0,0L111.2,50.6L111.2,50.6z M88.9,115.2H65c-1.8,0-3.2,1.4-3.2,3.2
			l0,0v1.1c0,1.8,1.5,3.2,3.2,3.2h23.9c1.8,0,3.2-1.4,3.2-3.2l0,0v-1.1C92.1,116.6,90.7,115.2,88.9,115.2L88.9,115.2z M104.1,92.4
			H65c-1.8,0-3.2,1.4-3.2,3.2v1.1c0,1.8,1.5,3.2,3.2,3.2h39.1c1.8,0,3.2-1.4,3.2-3.2l0,0v-1.1C107.3,93.8,105.9,92.4,104.1,92.4
			L104.1,92.4z M104.1,69.6H65c-1.8,0-3.2,1.4-3.2,3.2V74c0,1.8,1.5,3.2,3.2,3.2h39.1c1.8,0,3.2-1.4,3.2-3.2l0,0v-1.1
			C107.3,71,105.9,69.6,104.1,69.6L104.1,69.6z"/>
		<path class="st2" d="M123.1,111.4h30.4v22.8c0,8.4-6.8,15.2-15.2,15.2s-15.2-6.8-15.2-15.2L123.1,111.4L123.1,111.4z"/>
	</g>
</g>
</svg>
