<?xml version="1.0" encoding="utf-8"?>
<!-- Generator: Adobe Illustrator 26.3.1, SVG Export Plug-In . SVG Version: 6.00 Build 0)  -->
<svg version="1.1" id="图层_1" xmlns="http://www.w3.org/2000/svg" xmlns:xlink="http://www.w3.org/1999/xlink" x="0px" y="0px"
	 viewBox="0 0 200 200" style="enable-background:new 0 0 200 200;" xml:space="preserve">
<style type="text/css">
	.st0{fill:url(#SVGID_1_);}
	.st1{fill:#FF8A95;}
	.st2{fill:#FFFFFF;}
</style>
<g>
	<g>
		<g>
			
				<linearGradient id="SVGID_1_" gradientUnits="userSpaceOnUse" x1="32.3838" y1="166.1048" x2="164.3771" y2="36.8471" gradientTransform="matrix(1 0 0 -1 0 199.89)">
				<stop  offset="0" style="stop-color:#FF7870"/>
				<stop  offset="0.7584" style="stop-color:#FF003A"/>
			</linearGradient>
			<path class="st0" d="M199,100c-0.5,33.4-5.6,60.9-22.1,76.9c-16,16.5-43.5,21.6-76.9,22.1c-33.4-0.5-60.9-5.6-76.9-22.1
				C6.6,160.9,1.5,133.4,1,100c0.5-33.4,5.6-60.9,22.1-76.9C39.1,6.6,66.6,1.5,100,1c33.4,0.5,60.9,5.6,76.9,22.1
				C193.4,39.1,198.5,66.6,199,100z"/>
		</g>
	</g>
	<g>
		<path class="st1" d="M159.7,126.3c-4.7-5.8-12-10.8-21.1-13.6c0,0-3.6-0.8-4.7-1.4c-1.9-1.4-3.1-3.6-3.1-6.1c0-2.8,2.2-5,3.6-6.4
			c3.6-4.4,5.8-10.3,5.8-17c0-13.6-9.7-25-22-25c-1.9,0-3.9,0.3-5.6,0.8c4.2,6.1,6.4,13.4,6.4,21.4c0,8.6-3.1,17-8.3,23.9l-0.6,0.6
			v0.3c-0.6,0.6-1.4,1.4-1.7,2.2c0,0.3,0,0.3,0.3,0.3c0.6,0.3,1.4,0.6,2.2,0.6h0.3l1.1,0.6c11.4,3.6,21.2,10,27.5,18.1
			c2.8,3.6,4.4,7.8,4.4,12.2c0,2.5-0.6,4.4-1.4,6.7h8.1c6.4,0,11.4-4.7,11.4-10.9C162.2,130.5,161.4,128.2,159.7,126.3L159.7,126.3z
			"/>
		<path class="st2" d="M109.9,114c0,0-4.2-1.1-5.3-1.7c-2.2-1.4-3.6-4.2-3.6-7c0-3.1,2.5-5.6,4.2-7.5c4.2-5,6.4-11.7,6.4-19.2
			c0-15.6-11.1-28.1-24.8-28.1S62,63.4,62,79c0,7.5,2.5,14.2,6.4,19.2c2.5,1.4,4.2,4.4,4.2,7.5c0,2.8-1.4,5.3-3.6,7v0.3
			c-0.3,0-0.6,0.3-0.6,0.3c-1.4,0.8-2.8,1.4-4.5,1.4c-10.6,3.6-19.5,9.2-24.8,16.1h0.3c-1.4,1.9-2,4.2-2,6.4
			c0,6.7,5.6,12.2,12.5,12.2h73.5c7.2,0,12.8-5.3,12.8-12.2c0-2.8-1.1-5.3-2.5-7.5C128.5,122.7,120.2,117.4,109.9,114L109.9,114z"/>
	</g>
</g>
</svg>
